<svg width="30" height="30" viewBox="0 0 30 30" fill="none" xmlns="http://www.w3.org/2000/svg">
<path d="M21.7209 0H8.27874C3.71384 0 0 3.71384 0 8.27874V21.7209C0 26.2862 3.71384 30 8.27874 30H21.7209C26.2862 30 30 26.2862 30 21.7209V8.27874C30 3.71384 26.2862 0 21.7209 0ZM27.0954 21.7209C27.0954 24.6835 24.6835 27.0954 21.7213 27.0954H8.27874C5.31655 27.0954 2.90459 24.6835 2.90459 21.7209V8.27874C2.90459 5.31655 5.31655 2.90459 8.27874 2.90459H21.7209C24.6831 2.90459 27.0954 5.31655 27.0954 8.27874V21.7209Z" fill="#21243D"/>
<path d="M15 7.25928C10.7399 7.25928 7.25928 10.7399 7.25928 15C7.25928 19.2601 10.7399 22.7407 15 22.7407C19.2601 22.7407 22.7407 19.2601 22.7407 15C22.7407 10.7399 19.2601 7.25928 15 7.25928ZM15 19.8361C12.3426 19.8361 10.1639 17.6578 10.1639 15C10.1639 12.3422 12.3426 10.1639 15 10.1639C17.6574 10.1639 19.8361 12.3422 19.8361 15C19.8361 17.6578 17.6574 19.8361 15 19.8361Z" fill="#21243D"/>
<path d="M23.0545 5.05127C22.5417 5.05127 22.0379 5.25514 21.6757 5.61731C21.3124 5.97854 21.1089 6.48332 21.1089 6.99609C21.1089 7.50886 21.3128 8.01269 21.6757 8.37486C22.0375 8.73609 22.5417 8.94092 23.0545 8.94092C23.5684 8.94092 24.0715 8.73609 24.4337 8.37486C24.7966 8.01269 25.0001 7.50791 25.0001 6.99609C25.0001 6.48332 24.7966 5.97854 24.4337 5.61731C24.0722 5.25514 23.5684 5.05127 23.0545 5.05127Z" fill="#21243D"/>
</svg>
