<svg width="30" height="30" viewBox="0 0 30 30" fill="none" xmlns="http://www.w3.org/2000/svg">
<path d="M25.6055 0H4.39453C1.97159 0 0 1.97159 0 4.39453V25.6055C0 28.0284 1.97159 30 4.39453 30H25.6055C28.0284 30 30 28.0284 30 25.6055V4.39453C30 1.97159 28.0284 0 25.6055 0ZM10.6055 23.7891H7.08984V11.4844H10.6055V23.7891ZM8.84766 9.92578C7.80516 9.92578 6.97266 9.07734 6.97266 8.05078C6.97266 7.02422 7.80516 6.17578 8.84766 6.17578C9.87422 6.17578 10.7227 7.02422 10.7227 8.05078C10.7227 9.07734 9.87422 9.92578 8.84766 9.92578ZM24.6094 23.7891H21.0938V17.0508C21.0938 14.9766 19.9453 14.5664 19.3828 14.5664C18.8203 14.5664 17.3672 14.9063 17.3672 17.0508C17.3672 17.3203 17.3672 23.7891 17.3672 23.7891H13.8516V11.4844H17.3672V13.1367C17.8711 12.3281 18.9609 11.1797 20.9766 11.1797C23.0508 11.1797 24.6094 12.7383 24.6094 16.0781V23.7891Z" fill="#21243D"/>
</svg>
